<?xml version="1.0" encoding="UTF-8"?>
<svg version="1.1" xmlns="http://www.w3.org/2000/svg" width="540" height="500">
<path d="M0 0 C66.33 0 132.66 0 201 0 C201 0.99 201 1.98 201 3 C201.99 3 202.98 3 204 3 C204 3.99 204 4.98 204 6 C204.99 6 205.98 6 207 6 C207 97.08 207 188.16 207 282 C206.01 282 205.02 282 204 282 C204 282.99 204 283.98 204 285 C203.01 285 202.02 285 201 285 C201 285.99 201 286.98 201 288 C134.67 288 68.34 288 0 288 C0 287.01 0 286.02 0 285 C-0.99 285 -1.98 285 -3 285 C-3 284.01 -3 283.02 -3 282 C-3.99 282 -4.98 282 -6 282 C-6 190.92 -6 99.84 -6 6 C-5.01 6 -4.02 6 -3 6 C-3 5.01 -3 4.02 -3 3 C-2.01 3 -1.02 3 0 3 C0 2.01 0 1.02 0 0 Z " fill="#0000F8" transform="translate(169,106)"/>
<path d="M0 0 C39.6 0 79.2 0 120 0 C120 0.99 120 1.98 120 3 C121.98 3 123.96 3 126 3 C126 5.97 126 8.94 126 12 C127.98 12 129.96 12 132 12 C132 11.01 132 10.02 132 9 C135.96 9 139.92 9 144 9 C144 9.99 144 10.98 144 12 C145.98 12 147.96 12 150 12 C150 23.88 150 35.76 150 48 C150.99 48 151.98 48 153 48 C153 54.93 153 61.86 153 69 C152.01 69 151.02 69 150 69 C150 77.91 150 86.82 150 96 C144.06 96 138.12 96 132 96 C132 73.23 132 50.46 132 27 C130.02 27 128.04 27 126 27 C126 46.8 126 66.6 126 87 C125.01 87 124.02 87 123 87 C123 87.99 123 88.98 123 90 C117.06 90 111.12 90 105 90 C105 97.92 105 105.84 105 114 C105.99 114 106.98 114 108 114 C108 120.93 108 127.86 108 135 C107.01 135 106.02 135 105 135 C105 143.91 105 152.82 105 162 C106.98 162 108.96 162 111 162 C111 165.96 111 169.92 111 174 C111.99 174 112.98 174 114 174 C114 176.97 114 179.94 114 183 C97.17 183 80.34 183 63 183 C63 178.05 63 173.1 63 168 C63.99 168 64.98 168 66 168 C66 166.02 66 164.04 66 162 C67.98 162 69.96 162 72 162 C72 138.24 72 114.48 72 90 C64.08 90 56.16 90 48 90 C48 97.92 48 105.84 48 114 C48.99 114 49.98 114 51 114 C51 120.93 51 127.86 51 135 C50.01 135 49.02 135 48 135 C48 143.91 48 152.82 48 162 C49.98 162 51.96 162 54 162 C54 165.96 54 169.92 54 174 C54.99 174 55.98 174 57 174 C57 176.97 57 179.94 57 183 C40.17 183 23.34 183 6 183 C6 178.05 6 173.1 6 168 C6.99 168 7.98 168 9 168 C9 166.02 9 164.04 9 162 C10.98 162 12.96 162 15 162 C15 138.24 15 114.48 15 90 C9.06 90 3.12 90 -3 90 C-3 89.01 -3 88.02 -3 87 C-3.99 87 -4.98 87 -6 87 C-6 67.2 -6 47.4 -6 27 C-7.98 27 -9.96 27 -12 27 C-12 33.93 -12 40.86 -12 48 C-11.01 48 -10.02 48 -9 48 C-9 54.93 -9 61.86 -9 69 C-9.99 69 -10.98 69 -12 69 C-12 77.91 -12 86.82 -12 96 C-17.94 96 -23.88 96 -30 96 C-30 68.28 -30 40.56 -30 12 C-28.02 12 -26.04 12 -24 12 C-24 11.01 -24 10.02 -24 9 C-20.04 9 -16.08 9 -12 9 C-12 9.99 -12 10.98 -12 12 C-10.02 12 -8.04 12 -6 12 C-6 9.03 -6 6.06 -6 3 C-4.02 3 -2.04 3 0 3 C0 2.01 0 1.02 0 0 Z " fill="#FC0000" transform="translate(211,202)"/>
<path d="M0 0 C41.58 0 83.16 0 126 0 C126 0.99 126 1.98 126 3 C120.06 3 114.12 3 108 3 C108 10.92 108 18.84 108 27 C108.99 27 109.98 27 111 27 C111 33.93 111 40.86 111 48 C110.01 48 109.02 48 108 48 C108 56.91 108 65.82 108 75 C109.98 75 111.96 75 114 75 C114 78.96 114 82.92 114 87 C114.99 87 115.98 87 117 87 C117 89.97 117 92.94 117 96 C100.17 96 83.34 96 66 96 C66 91.05 66 86.1 66 81 C66.99 81 67.98 81 69 81 C69 79.02 69 77.04 69 75 C70.98 75 72.96 75 75 75 C75 51.24 75 27.48 75 3 C67.08 3 59.16 3 51 3 C51 10.92 51 18.84 51 27 C51.99 27 52.98 27 54 27 C54 33.93 54 40.86 54 48 C53.01 48 52.02 48 51 48 C51 56.91 51 65.82 51 75 C52.98 75 54.96 75 57 75 C57 78.96 57 82.92 57 87 C57.99 87 58.98 87 60 87 C60 89.97 60 92.94 60 96 C43.17 96 26.34 96 9 96 C9 91.05 9 86.1 9 81 C9.99 81 10.98 81 12 81 C12 79.02 12 77.04 12 75 C13.98 75 15.96 75 18 75 C18 51.24 18 27.48 18 3 C12.06 3 6.12 3 0 3 C0 2.01 0 1.02 0 0 Z " fill="#000000" transform="translate(208,289)"/>
<path d="M0 0 C31.68 0 63.36 0 96 0 C96 19.8 96 39.6 96 60 C64.32 60 32.64 60 0 60 C0 40.2 0 20.4 0 0 Z " fill="#FC0000" transform="translate(223,217)"/>
<path d="M0 0 C6.93 0 13.86 0 21 0 C21 5.94 21 11.88 21 18 C19.02 18 17.04 18 15 18 C15 18.99 15 19.98 15 21 C25.89 21 36.78 21 48 21 C48 21.99 48 22.98 48 24 C48.99 24 49.98 24 51 24 C51 28.95 51 33.9 51 39 C53.97 39 56.94 39 60 39 C60 46.92 60 54.84 60 63 C57.03 63 54.06 63 51 63 C51 67.95 51 72.9 51 78 C25.26 78 -0.48 78 -27 78 C-27 73.05 -27 68.1 -27 63 C-29.97 63 -32.94 63 -36 63 C-36 55.08 -36 47.16 -36 39 C-33.03 39 -30.06 39 -27 39 C-27 34.05 -27 29.1 -27 24 C-26.01 24 -25.02 24 -24 24 C-24 23.01 -24 22.02 -24 21 C-14.1 21 -4.2 21 6 21 C6 20.01 6 19.02 6 18 C4.02 18 2.04 18 0 18 C0 12.06 0 6.12 0 0 Z " fill="#FC0707" transform="translate(259,118)"/>
<path d="M0 0 C41.58 0 83.16 0 126 0 C126 0.99 126 1.98 126 3 C120.06 3 114.12 3 108 3 C108 11.91 108 20.82 108 30 C97.11 30 86.22 30 75 30 C75 21.09 75 12.18 75 3 C67.08 3 59.16 3 51 3 C51 11.91 51 20.82 51 30 C40.11 30 29.22 30 18 30 C18 21.09 18 12.18 18 3 C12.06 3 6.12 3 0 3 C0 2.01 0 1.02 0 0 Z " fill="#000000" transform="translate(208,289)"/>
<path d="M0 0 C0.99 0 1.98 0 3 0 C3 2.97 3 5.94 3 9 C4.98 9 6.96 9 9 9 C9 8.01 9 7.02 9 6 C12.96 6 16.92 6 21 6 C21 6.99 21 7.98 21 9 C22.98 9 24.96 9 27 9 C27 20.88 27 32.76 27 45 C27.99 45 28.98 45 30 45 C30 51.93 30 58.86 30 66 C29.01 66 28.02 66 27 66 C27 74.91 27 83.82 27 93 C21.06 93 15.12 93 9 93 C9 70.23 9 47.46 9 24 C7.02 24 5.04 24 3 24 C3 43.8 3 63.6 3 84 C2.01 84 1.02 84 0 84 C0 56.28 0 28.56 0 0 Z " fill="#000000" transform="translate(334,205)"/>
<path d="M0 0 C0.99 0 1.98 0 3 0 C3 27.72 3 55.44 3 84 C2.01 84 1.02 84 0 84 C0 64.2 0 44.4 0 24 C-1.98 24 -3.96 24 -6 24 C-6 30.93 -6 37.86 -6 45 C-5.01 45 -4.02 45 -3 45 C-3 51.93 -3 58.86 -3 66 C-3.99 66 -4.98 66 -6 66 C-6 74.91 -6 83.82 -6 93 C-11.94 93 -17.88 93 -24 93 C-24 65.28 -24 37.56 -24 9 C-22.02 9 -20.04 9 -18 9 C-18 8.01 -18 7.02 -18 6 C-14.04 6 -10.08 6 -6 6 C-6 6.99 -6 7.98 -6 9 C-4.02 9 -2.04 9 0 9 C0 6.03 0 3.06 0 0 Z " fill="#000000" transform="translate(205,205)"/>
<path d="M0 0 C24.75 0 49.5 0 75 0 C75 4.95 75 9.9 75 15 C50.25 15 25.5 15 0 15 C0 10.05 0 5.1 0 0 Z " fill="#CBCB30" transform="translate(235,253)"/>
<path d="M0 0 C10.89 0 21.78 0 33 0 C33 0.99 33 1.98 33 3 C34.98 3 36.96 3 39 3 C39 6.96 39 10.92 39 15 C39.99 15 40.98 15 42 15 C42 17.97 42 20.94 42 24 C25.17 24 8.34 24 -9 24 C-9 19.05 -9 14.1 -9 9 C-8.01 9 -7.02 9 -6 9 C-6 7.02 -6 5.04 -6 3 C-4.02 3 -2.04 3 0 3 C0 2.01 0 1.02 0 0 Z " fill="#000000" transform="translate(283,361)"/>
<path d="M0 0 C10.89 0 21.78 0 33 0 C33 0.99 33 1.98 33 3 C34.98 3 36.96 3 39 3 C39 6.96 39 10.92 39 15 C39.99 15 40.98 15 42 15 C42 17.97 42 20.94 42 24 C25.17 24 8.34 24 -9 24 C-9 19.05 -9 14.1 -9 9 C-8.01 9 -7.02 9 -6 9 C-6 7.02 -6 5.04 -6 3 C-4.02 3 -2.04 3 0 3 C0 2.01 0 1.02 0 0 Z " fill="#000000" transform="translate(226,361)"/>
<path d="M0 0 C6.93 0 13.86 0 21 0 C21 5.94 21 11.88 21 18 C19.02 18 17.04 18 15 18 C15 18.99 15 19.98 15 21 C25.89 21 36.78 21 48 21 C48 21.99 48 22.98 48 24 C25.23 24 2.46 24 -21 24 C-21 24.99 -21 25.98 -21 27 C-21.99 27 -22.98 27 -24 27 C-24 43.83 -24 60.66 -24 78 C-24.99 78 -25.98 78 -27 78 C-27 73.05 -27 68.1 -27 63 C-29.97 63 -32.94 63 -36 63 C-36 55.08 -36 47.16 -36 39 C-33.03 39 -30.06 39 -27 39 C-27 34.05 -27 29.1 -27 24 C-26.01 24 -25.02 24 -24 24 C-24 23.01 -24 22.02 -24 21 C-14.1 21 -4.2 21 6 21 C6 20.01 6 19.02 6 18 C4.02 18 2.04 18 0 18 C0 12.06 0 6.12 0 0 Z " fill="#060000" transform="translate(259,118)"/>
<path d="M0 0 C33.66 0 67.32 0 102 0 C102 21.78 102 43.56 102 66 C68.34 66 34.68 66 0 66 C0 44.22 0 22.44 0 0 Z M3 3 C3 22.8 3 42.6 3 63 C34.68 63 66.36 63 99 63 C99 43.2 99 23.4 99 3 C67.32 3 35.64 3 3 3 Z " fill="#FCFCFC" transform="translate(220,214)"/>
<path d="M0 0 C0.99 0 1.98 0 3 0 C3 91.08 3 182.16 3 276 C2.01 276 1.02 276 0 276 C0 184.92 0 93.84 0 0 Z " fill="#000000" transform="translate(373,112)"/>
<path d="M0 0 C0.99 0 1.98 0 3 0 C3 91.08 3 182.16 3 276 C2.01 276 1.02 276 0 276 C0 184.92 0 93.84 0 0 Z " fill="#000000" transform="translate(163,112)"/>
<path d="M0 0 C1.98 0 3.96 0 6 0 C6 0.99 6 1.98 6 3 C6.99 3 7.98 3 9 3 C9 3.99 9 4.98 9 6 C9.99 6 10.98 6 12 6 C12 4.02 12 2.04 12 0 C13.98 0 15.96 0 18 0 C18 0.99 18 1.98 18 3 C18.99 3 19.98 3 21 3 C21 3.99 21 4.98 21 6 C21.99 6 22.98 6 24 6 C24 6.99 24 7.98 24 9 C24.99 9 25.98 9 27 9 C27 9.99 27 10.98 27 12 C27.99 12 28.98 12 30 12 C30 13.98 30 15.96 30 18 C29.01 18 28.02 18 27 18 C27 18.99 27 19.98 27 21 C26.01 21 25.02 21 24 21 C24 21.99 24 22.98 24 24 C23.01 24 22.02 24 21 24 C21 24.99 21 25.98 21 27 C19.02 27 17.04 27 15 27 C15 26.01 15 25.02 15 24 C13.02 24 11.04 24 9 24 C9 24.99 9 25.98 9 27 C5.04 27 1.08 27 -3 27 C-3 26.01 -3 25.02 -3 24 C-3.99 24 -4.98 24 -6 24 C-6 23.01 -6 22.02 -6 21 C-6.99 21 -7.98 21 -9 21 C-9 16.05 -9 11.1 -9 6 C-7.02 6 -5.04 6 -3 6 C-3 5.01 -3 4.02 -3 3 C-2.01 3 -1.02 3 0 3 C0 2.01 0 1.02 0 0 Z " fill="#BD0000" transform="translate(187,304)"/>
<path d="M0 0 C66.33 0 132.66 0 201 0 C201 0.99 201 1.98 201 3 C134.67 3 68.34 3 0 3 C0 2.01 0 1.02 0 0 Z " fill="#000000" transform="translate(169,391)"/>
<path d="M0 0 C66.33 0 132.66 0 201 0 C201 0.99 201 1.98 201 3 C134.67 3 68.34 3 0 3 C0 2.01 0 1.02 0 0 Z " fill="#000000" transform="translate(169,106)"/>
<path d="M0 0 C23.76 0 47.52 0 72 0 C72 0.99 72 1.98 72 3 C79.92 3 87.84 3 96 3 C96 3.99 96 4.98 96 6 C56.4 6 16.8 6 -24 6 C-24 5.01 -24 4.02 -24 3 C-16.08 3 -8.16 3 0 3 C0 2.01 0 1.02 0 0 Z " fill="#000000" transform="translate(235,196)"/>
<path d="M0 0 C0.99 0 1.98 0 3 0 C3 21.78 3 43.56 3 66 C-31.65 66 -66.3 66 -102 66 C-102 65.01 -102 64.02 -102 63 C-68.34 63 -34.68 63 0 63 C0 42.21 0 21.42 0 0 Z " fill="#000000" transform="translate(322,217)"/>
<path d="M0 0 C8.91 0 17.82 0 27 0 C27 5.94 27 11.88 27 18 C18.09 18 9.18 18 0 18 C0 12.06 0 6.12 0 0 Z " fill="#FC0000" transform="translate(286,340)"/>
<path d="M0 0 C8.91 0 17.82 0 27 0 C27 5.94 27 11.88 27 18 C18.09 18 9.18 18 0 18 C0 12.06 0 6.12 0 0 Z " fill="#FC0000" transform="translate(229,340)"/>
<path d="M0 0 C8.91 0 17.82 0 27 0 C27 5.94 27 11.88 27 18 C18.09 18 9.18 18 0 18 C0 12.06 0 6.12 0 0 Z " fill="#FC0000" transform="translate(286,295)"/>
<path d="M0 0 C8.91 0 17.82 0 27 0 C27 5.94 27 11.88 27 18 C18.09 18 9.18 18 0 18 C0 12.06 0 6.12 0 0 Z " fill="#FC0000" transform="translate(229,295)"/>
<path d="M0 0 C31.68 0 63.36 0 96 0 C96 0.99 96 1.98 96 3 C65.31 3 34.62 3 3 3 C3 21.81 3 40.62 3 60 C2.01 60 1.02 60 0 60 C0 40.2 0 20.4 0 0 Z " fill="#000000" transform="translate(223,217)"/>
<path d="M0 0 C2.97 0 5.94 0 9 0 C9 0.99 9 1.98 9 3 C9.99 3 10.98 3 12 3 C12 13.89 12 24.78 12 36 C8.04 36 4.08 36 0 36 C0 24.12 0 12.24 0 0 Z " fill="#FC0000" transform="translate(346,211)"/>
<path d="M0 0 C2.97 0 5.94 0 9 0 C9 11.88 9 23.76 9 36 C5.04 36 1.08 36 -3 36 C-3 25.11 -3 14.22 -3 3 C-2.01 3 -1.02 3 0 3 C0 2.01 0 1.02 0 0 Z " fill="#FC0000" transform="translate(187,211)"/>
<path d="M0 0 C5.94 0 11.88 0 18 0 C18 0.99 18 1.98 18 3 C18.99 3 19.98 3 21 3 C21 3.99 21 4.98 21 6 C21.99 6 22.98 6 24 6 C24 8.97 24 11.94 24 15 C19.05 15 14.1 15 9 15 C9 14.01 9 13.02 9 12 C8.01 12 7.02 12 6 12 C6 12.99 6 13.98 6 15 C2.04 15 -1.92 15 -6 15 C-6 12.03 -6 9.06 -6 6 C-5.01 6 -4.02 6 -3 6 C-3 5.01 -3 4.02 -3 3 C-2.01 3 -1.02 3 0 3 C0 2.01 0 1.02 0 0 Z " fill="#F0F0F0" transform="translate(244,229)"/>
<path d="M0 0 C0.99 0 1.98 0 3 0 C3 4.95 3 9.9 3 15 C5.97 15 8.94 15 12 15 C12 22.92 12 30.84 12 39 C9.03 39 6.06 39 3 39 C3 43.95 3 48.9 3 54 C2.01 54 1.02 54 0 54 C0 36.18 0 18.36 0 0 Z " fill="#060000" transform="translate(307,142)"/>
<path d="M0 0 C1.98 0 3.96 0 6 0 C6 0.99 6 1.98 6 3 C6.99 3 7.98 3 9 3 C9 3.99 9 4.98 9 6 C9.99 6 10.98 6 12 6 C12 6.99 12 7.98 12 9 C12.99 9 13.98 9 15 9 C15 9.99 15 10.98 15 12 C15.99 12 16.98 12 18 12 C18 13.98 18 15.96 18 18 C17.01 18 16.02 18 15 18 C15 18.99 15 19.98 15 21 C14.01 21 13.02 21 12 21 C12 21.99 12 22.98 12 24 C11.01 24 10.02 24 9 24 C9 24.99 9 25.98 9 27 C7.02 27 5.04 27 3 27 C3 26.01 3 25.02 3 24 C2.01 24 1.02 24 0 24 C0 23.01 0 22.02 0 21 C-0.99 21 -1.98 21 -3 21 C-3 20.01 -3 19.02 -3 18 C-3.99 18 -4.98 18 -6 18 C-6 17.01 -6 16.02 -6 15 C-6.99 15 -7.98 15 -9 15 C-9 14.01 -9 13.02 -9 12 C-5.04 12 -1.08 12 3 12 C3 10.02 3 8.04 3 6 C2.01 6 1.02 6 0 6 C0 4.02 0 2.04 0 0 Z " fill="#FCFCFC" transform="translate(199,304)"/>
<path d="M0 0 C38.61 0 77.22 0 117 0 C117 0.99 117 1.98 117 3 C78.39 3 39.78 3 0 3 C0 2.01 0 1.02 0 0 Z " fill="#FCFCFC" transform="translate(211,202)"/>
<path d="M0 0 C10.89 0 21.78 0 33 0 C33 0.99 33 1.98 33 3 C33.99 3 34.98 3 36 3 C36 4.98 36 6.96 36 9 C23.13 9 10.26 9 -3 9 C-3 7.02 -3 5.04 -3 3 C-2.01 3 -1.02 3 0 3 C0 2.01 0 1.02 0 0 Z " fill="#FC0000" transform="translate(283,361)"/>
<path d="M0 0 C10.89 0 21.78 0 33 0 C33 0.99 33 1.98 33 3 C33.99 3 34.98 3 36 3 C36 4.98 36 6.96 36 9 C23.13 9 10.26 9 -3 9 C-3 7.02 -3 5.04 -3 3 C-2.01 3 -1.02 3 0 3 C0 2.01 0 1.02 0 0 Z " fill="#FC0000" transform="translate(226,361)"/>
<path d="M0 0 C12.87 0 25.74 0 39 0 C39 1.98 39 3.96 39 6 C38.01 6 37.02 6 36 6 C36 6.99 36 7.98 36 9 C25.11 9 14.22 9 3 9 C3 8.01 3 7.02 3 6 C2.01 6 1.02 6 0 6 C0 4.02 0 2.04 0 0 Z " fill="#282800" transform="translate(250,184)"/>
<path d="M0 0 C6.93 0 13.86 0 21 0 C21 4.95 21 9.9 21 15 C18.03 15 15.06 15 12 15 C12 15.99 12 16.98 12 18 C11.01 18 10.02 18 9 18 C9 17.01 9 16.02 9 15 C6.03 15 3.06 15 0 15 C0 10.05 0 5.1 0 0 Z " fill="#FC0000" transform="translate(259,118)"/>
<path d="M0 0 C10.89 0 21.78 0 33 0 C33 7.92 33 15.84 33 24 C22.11 24 11.22 24 0 24 C0 16.08 0 8.16 0 0 Z M3 3 C3 8.94 3 14.88 3 21 C11.91 21 20.82 21 30 21 C30 15.06 30 9.12 30 3 C21.09 3 12.18 3 3 3 Z " fill="#000000" transform="translate(283,337)"/>
<path d="M0 0 C10.89 0 21.78 0 33 0 C33 7.92 33 15.84 33 24 C22.11 24 11.22 24 0 24 C0 16.08 0 8.16 0 0 Z M3 3 C3 8.94 3 14.88 3 21 C11.91 21 20.82 21 30 21 C30 15.06 30 9.12 30 3 C21.09 3 12.18 3 3 3 Z " fill="#000000" transform="translate(226,337)"/>
<path d="M0 0 C2.97 0 5.94 0 9 0 C9 0.99 9 1.98 9 3 C9.99 3 10.98 3 12 3 C12 2.01 12 1.02 12 0 C14.97 0 17.94 0 21 0 C21 0.99 21 1.98 21 3 C19.02 3 17.04 3 15 3 C15 3.99 15 4.98 15 6 C25.89 6 36.78 6 48 6 C48 6.99 48 7.98 48 9 C25.23 9 2.46 9 -21 9 C-21 9.99 -21 10.98 -21 12 C-21.99 12 -22.98 12 -24 12 C-24 10.02 -24 8.04 -24 6 C-14.1 6 -4.2 6 6 6 C6 5.01 6 4.02 6 3 C4.02 3 2.04 3 0 3 C0 2.01 0 1.02 0 0 Z " fill="#070000" transform="translate(259,133)"/>
<path d="M0 0 C14.85 0 29.7 0 45 0 C45 1.98 45 3.96 45 6 C30.15 6 15.3 6 0 6 C0 4.02 0 2.04 0 0 Z " fill="#FC0000" transform="translate(277,376)"/>
<path d="M0 0 C14.85 0 29.7 0 45 0 C45 1.98 45 3.96 45 6 C30.15 6 15.3 6 0 6 C0 4.02 0 2.04 0 0 Z " fill="#FC0000" transform="translate(220,376)"/>
<path d="M0 0 C0.99 0 1.98 0 3 0 C3 0.99 3 1.98 3 3 C5.97 3 8.94 3 12 3 C12 9.93 12 16.86 12 24 C8.04 24 4.08 24 0 24 C0 16.08 0 8.16 0 0 Z " fill="#FC0000" transform="translate(346,274)"/>
<path d="M0 0 C0.99 0 1.98 0 3 0 C3 0.99 3 1.98 3 3 C5.97 3 8.94 3 12 3 C12 9.93 12 16.86 12 24 C8.04 24 4.08 24 0 24 C0 16.08 0 8.16 0 0 Z " fill="#FC0000" transform="translate(184,274)"/>
<path d="M0 0 C1.98 0 3.96 0 6 0 C6 0.99 6 1.98 6 3 C6.99 3 7.98 3 9 3 C9 3.99 9 4.98 9 6 C9.99 6 10.98 6 12 6 C12 10.95 12 15.9 12 21 C11.01 21 10.02 21 9 21 C9 21.99 9 22.98 9 24 C5.04 24 1.08 24 -3 24 C-3 23.01 -3 22.02 -3 21 C-3.99 21 -4.98 21 -6 21 C-6 20.01 -6 19.02 -6 18 C-2.04 18 1.92 18 6 18 C6 17.01 6 16.02 6 15 C6.99 15 7.98 15 9 15 C9 14.01 9 13.02 9 12 C8.01 12 7.02 12 6 12 C6 11.01 6 10.02 6 9 C2.04 9 -1.92 9 -6 9 C-6 8.01 -6 7.02 -6 6 C-5.01 6 -4.02 6 -3 6 C-3 5.01 -3 4.02 -3 3 C-2.01 3 -1.02 3 0 3 C0 2.01 0 1.02 0 0 Z " fill="#FC2525" transform="translate(349,304)"/>
<path d="M0 0 C0.99 0 1.98 0 3 0 C3 26.73 3 53.46 3 81 C2.01 81 1.02 81 0 81 C0 54.27 0 27.54 0 0 Z " fill="#FCFCFC" transform="translate(208,205)"/>
<path d="M0 0 C5.94 0 11.88 0 18 0 C18 8.91 18 17.82 18 27 C17.01 27 16.02 27 15 27 C15 20.07 15 13.14 15 6 C12.03 6 9.06 6 6 6 C6 5.01 6 4.02 6 3 C5.01 3 4.02 3 3 3 C3 10.92 3 18.84 3 27 C2.01 27 1.02 27 0 27 C0 18.09 0 9.18 0 0 Z " fill="#000000" transform="translate(343,271)"/>
<path d="M0 0 C5.94 0 11.88 0 18 0 C18 8.91 18 17.82 18 27 C17.01 27 16.02 27 15 27 C15 20.07 15 13.14 15 6 C12.03 6 9.06 6 6 6 C6 5.01 6 4.02 6 3 C5.01 3 4.02 3 3 3 C3 10.92 3 18.84 3 27 C2.01 27 1.02 27 0 27 C0 18.09 0 9.18 0 0 Z " fill="#000000" transform="translate(181,271)"/>
<path d="M0 0 C24.75 0 49.5 0 75 0 C75 0.99 75 1.98 75 3 C50.25 3 25.5 3 0 3 C0 2.01 0 1.02 0 0 Z " fill="#000000" transform="translate(235,268)"/>
<path d="M0 0 C24.75 0 49.5 0 75 0 C75 0.99 75 1.98 75 3 C50.25 3 25.5 3 0 3 C0 2.01 0 1.02 0 0 Z " fill="#000000" transform="translate(235,250)"/>
<path d="M0 0 C21.78 0 43.56 0 66 0 C66 0.99 66 1.98 66 3 C44.22 3 22.44 3 0 3 C0 2.01 0 1.02 0 0 Z " fill="#FCFCFC" transform="translate(238,142)"/>
<path d="M0 0 C2.97 0 5.94 0 9 0 C9 0.99 9 1.98 9 3 C9.99 3 10.98 3 12 3 C12 5.97 12 8.94 12 12 C11.01 12 10.02 12 9 12 C9 12.99 9 13.98 9 15 C6.03 15 3.06 15 0 15 C0 14.01 0 13.02 0 12 C-0.99 12 -1.98 12 -3 12 C-3 9.03 -3 6.06 -3 3 C-2.01 3 -1.02 3 0 3 C0 2.01 0 1.02 0 0 Z " fill="#000000" transform="translate(280,154)"/>
<path d="M0 0 C2.97 0 5.94 0 9 0 C9 0.99 9 1.98 9 3 C9.99 3 10.98 3 12 3 C12 5.97 12 8.94 12 12 C11.01 12 10.02 12 9 12 C9 12.99 9 13.98 9 15 C6.03 15 3.06 15 0 15 C0 14.01 0 13.02 0 12 C-0.99 12 -1.98 12 -3 12 C-3 9.03 -3 6.06 -3 3 C-2.01 3 -1.02 3 0 3 C0 2.01 0 1.02 0 0 Z " fill="#000000" transform="translate(250,154)"/>
<path d="M0 0 C0.99 0 1.98 0 3 0 C3 2.97 3 5.94 3 9 C6.96 9 10.92 9 15 9 C15 8.01 15 7.02 15 6 C15.99 6 16.98 6 18 6 C18 6.99 18 7.98 18 9 C22.95 9 27.9 9 33 9 C33 6.03 33 3.06 33 0 C33.99 0 34.98 0 36 0 C36 3.96 36 7.92 36 12 C24.12 12 12.24 12 0 12 C0 8.04 0 4.08 0 0 Z " fill="#000000" transform="translate(235,235)"/>
<path d="M0 0 C1.98 0 3.96 0 6 0 C6 0.99 6 1.98 6 3 C6.99 3 7.98 3 9 3 C9 3.99 9 4.98 9 6 C9.99 6 10.98 6 12 6 C12 6.99 12 7.98 12 9 C8.04 9 4.08 9 0 9 C0 9.99 0 10.98 0 12 C-0.99 12 -1.98 12 -3 12 C-3 13.98 -3 15.96 -3 18 C-3.99 18 -4.98 18 -6 18 C-6 14.04 -6 10.08 -6 6 C-5.01 6 -4.02 6 -3 6 C-3 5.01 -3 4.02 -3 3 C-2.01 3 -1.02 3 0 3 C0 2.01 0 1.02 0 0 Z " fill="#FC1515" transform="translate(187,304)"/>
<path d="M0 0 C0.99 0 1.98 0 3 0 C3 15.84 3 31.68 3 48 C2.01 48 1.02 48 0 48 C0 32.16 0 16.32 0 0 Z " fill="#FCFCFC" transform="translate(235,145)"/>
<path d="M0 0 C14.85 0 29.7 0 45 0 C45 0.99 45 1.98 45 3 C30.15 3 15.3 3 0 3 C0 2.01 0 1.02 0 0 Z " fill="#FCFCFC" transform="translate(277,376)"/>
<path d="M0 0 C14.85 0 29.7 0 45 0 C45 0.99 45 1.98 45 3 C30.15 3 15.3 3 0 3 C0 2.01 0 1.02 0 0 Z " fill="#FCFCFC" transform="translate(220,376)"/>
<path d="M0 0 C2.97 0 5.94 0 9 0 C9 1.98 9 3.96 9 6 C8.01 6 7.02 6 6 6 C6 6.99 6 7.98 6 9 C5.01 9 4.02 9 3 9 C3 9.99 3 10.98 3 12 C2.01 12 1.02 12 0 12 C0 12.99 0 13.98 0 15 C-1.98 15 -3.96 15 -6 15 C-6 12.03 -6 9.06 -6 6 C-4.02 6 -2.04 6 0 6 C0 4.02 0 2.04 0 0 Z " fill="#FC0000" transform="translate(208,316)"/>
<path d="M0 0 C4.95 0 9.9 0 15 0 C15 2.97 15 5.94 15 9 C10.05 9 5.1 9 0 9 C0 6.03 0 3.06 0 0 Z " fill="#000000" transform="translate(262,121)"/>
<path d="M0 0 C3.96 0 7.92 0 12 0 C12 1.98 12 3.96 12 6 C12.99 6 13.98 6 15 6 C15 7.98 15 9.96 15 12 C14.01 12 13.02 12 12 12 C12 11.01 12 10.02 12 9 C11.01 9 10.02 9 9 9 C9 8.01 9 7.02 9 6 C7.02 6 5.04 6 3 6 C3 6.99 3 7.98 3 9 C2.01 9 1.02 9 0 9 C0 6.03 0 3.06 0 0 Z " fill="#000000" transform="translate(184,298)"/>
<path d="M0 0 C1.98 0 3.96 0 6 0 C6 0.99 6 1.98 6 3 C5.01 3 4.02 3 3 3 C3 12.9 3 22.8 3 33 C2.01 33 1.02 33 0 33 C0 22.11 0 11.22 0 0 Z " fill="#FCFCFC" transform="translate(346,211)"/>
<path d="M0 0 C10.89 0 21.78 0 33 0 C33 0.99 33 1.98 33 3 C22.11 3 11.22 3 0 3 C0 2.01 0 1.02 0 0 Z " fill="#FC1616" transform="translate(283,334)"/>
<path d="M0 0 C10.89 0 21.78 0 33 0 C33 0.99 33 1.98 33 3 C22.11 3 11.22 3 0 3 C0 2.01 0 1.02 0 0 Z " fill="#FC1616" transform="translate(226,334)"/>
<path d="M0 0 C10.89 0 21.78 0 33 0 C33 0.99 33 1.98 33 3 C22.11 3 11.22 3 0 3 C0 2.01 0 1.02 0 0 Z " fill="#FC1616" transform="translate(283,328)"/>
<path d="M0 0 C10.89 0 21.78 0 33 0 C33 0.99 33 1.98 33 3 C22.11 3 11.22 3 0 3 C0 2.01 0 1.02 0 0 Z " fill="#FC1616" transform="translate(226,328)"/>
<path d="M0 0 C10.89 0 21.78 0 33 0 C33 0.99 33 1.98 33 3 C22.11 3 11.22 3 0 3 C0 2.01 0 1.02 0 0 Z " fill="#FC1616" transform="translate(283,322)"/>
<path d="M0 0 C10.89 0 21.78 0 33 0 C33 0.99 33 1.98 33 3 C22.11 3 11.22 3 0 3 C0 2.01 0 1.02 0 0 Z " fill="#FC1616" transform="translate(226,322)"/>
<path d="M0 0 C10.89 0 21.78 0 33 0 C33 0.99 33 1.98 33 3 C22.11 3 11.22 3 0 3 C0 2.01 0 1.02 0 0 Z " fill="#FC1616" transform="translate(283,316)"/>
<path d="M0 0 C10.89 0 21.78 0 33 0 C33 0.99 33 1.98 33 3 C22.11 3 11.22 3 0 3 C0 2.01 0 1.02 0 0 Z " fill="#FC1616" transform="translate(226,316)"/>
<path d="M0 0 C0.99 0 1.98 0 3 0 C3 1.98 3 3.96 3 6 C-0.96 6 -4.92 6 -9 6 C-9 6.99 -9 7.98 -9 9 C-8.01 9 -7.02 9 -6 9 C-6 9.99 -6 10.98 -6 12 C-7.98 12 -9.96 12 -12 12 C-12 11.01 -12 10.02 -12 9 C-12.99 9 -13.98 9 -15 9 C-15 8.01 -15 7.02 -15 6 C-14.01 6 -13.02 6 -12 6 C-12 5.01 -12 4.02 -12 3 C-8.04 3 -4.08 3 0 3 C0 2.01 0 1.02 0 0 Z " fill="#000000" transform="translate(199,310)"/>
<path d="M0 0 C3.96 0 7.92 0 12 0 C12 2.97 12 5.94 12 9 C11.01 9 10.02 9 9 9 C9 8.01 9 7.02 9 6 C7.02 6 5.04 6 3 6 C3 6.99 3 7.98 3 9 C2.01 9 1.02 9 0 9 C0 6.03 0 3.06 0 0 Z " fill="#000000" transform="translate(346,298)"/>
<path d="M0 0 C0.99 0 1.98 0 3 0 C3 9.9 3 19.8 3 30 C2.01 30 1.02 30 0 30 C0 20.1 0 10.2 0 0 Z " fill="#FCFCFC" transform="translate(184,214)"/>
<path d="M0 0 C0.99 0 1.98 0 3 0 C3 6.93 3 13.86 3 21 C3.99 21 4.98 21 6 21 C6 21.99 6 22.98 6 24 C3.03 24 0.06 24 -3 24 C-3 23.01 -3 22.02 -3 21 C-2.01 21 -1.02 21 0 21 C0 14.07 0 7.14 0 0 Z " fill="#FCFCFC" transform="translate(268,154)"/>
<path d="M0 0 C2.97 0 5.94 0 9 0 C9 0.99 9 1.98 9 3 C8.01 3 7.02 3 6 3 C6 4.98 6 6.96 6 9 C3.03 9 0.06 9 -3 9 C-3 7.02 -3 5.04 -3 3 C-2.01 3 -1.02 3 0 3 C0 2.01 0 1.02 0 0 Z " fill="#FCA8A8" transform="translate(283,361)"/>
<path d="M0 0 C2.97 0 5.94 0 9 0 C9 0.99 9 1.98 9 3 C8.01 3 7.02 3 6 3 C6 4.98 6 6.96 6 9 C3.03 9 0.06 9 -3 9 C-3 7.02 -3 5.04 -3 3 C-2.01 3 -1.02 3 0 3 C0 2.01 0 1.02 0 0 Z " fill="#FCA8A8" transform="translate(226,361)"/>
<path d="M0 0 C8.91 0 17.82 0 27 0 C27 0.99 27 1.98 27 3 C18.09 3 9.18 3 0 3 C0 2.01 0 1.02 0 0 Z " fill="#000000" transform="translate(280,229)"/>
<path d="M0 0 C8.91 0 17.82 0 27 0 C27 0.99 27 1.98 27 3 C18.09 3 9.18 3 0 3 C0 2.01 0 1.02 0 0 Z " fill="#000000" transform="translate(280,223)"/>
<path d="M0 0 C0.99 0 1.98 0 3 0 C3 7.92 3 15.84 3 24 C2.01 24 1.02 24 0 24 C0 16.08 0 8.16 0 0 Z " fill="#FCFCFC" transform="translate(346,274)"/>
<path d="M0 0 C0.99 0 1.98 0 3 0 C3 7.92 3 15.84 3 24 C2.01 24 1.02 24 0 24 C0 16.08 0 8.16 0 0 Z " fill="#FCFCFC" transform="translate(184,274)"/>
<path d="M0 0 C6.93 0 13.86 0 21 0 C21 0.99 21 1.98 21 3 C14.07 3 7.14 3 0 3 C0 2.01 0 1.02 0 0 Z " fill="#000000" transform="translate(259,115)"/>
<path d="M0 0 C0.99 0 1.98 0 3 0 C3 5.94 3 11.88 3 18 C2.01 18 1.02 18 0 18 C0 12.06 0 6.12 0 0 Z " fill="#FCFCFC" transform="translate(286,340)"/>
<path d="M0 0 C0.99 0 1.98 0 3 0 C3 5.94 3 11.88 3 18 C2.01 18 1.02 18 0 18 C0 12.06 0 6.12 0 0 Z " fill="#FCFCFC" transform="translate(229,340)"/>
<path d="M0 0 C1.98 0 3.96 0 6 0 C6 2.97 6 5.94 6 9 C4.02 9 2.04 9 0 9 C0 6.03 0 3.06 0 0 Z " fill="#FC0000" transform="translate(202,322)"/>
<path d="M0 0 C4.95 0 9.9 0 15 0 C15 0.99 15 1.98 15 3 C11.04 3 7.08 3 3 3 C3 3.99 3 4.98 3 6 C2.01 6 1.02 6 0 6 C0 4.02 0 2.04 0 0 Z " fill="#000000" transform="translate(340,319)"/>
<path d="M0 0 C0.99 0 1.98 0 3 0 C3 0.99 3 1.98 3 3 C6.96 3 10.92 3 15 3 C15 3.99 15 4.98 15 6 C10.05 6 5.1 6 0 6 C0 4.02 0 2.04 0 0 Z " fill="#000000" transform="translate(340,310)"/>
<path d="M0 0 C0.99 0 1.98 0 3 0 C3 5.94 3 11.88 3 18 C2.01 18 1.02 18 0 18 C0 12.06 0 6.12 0 0 Z " fill="#FCFCFC" transform="translate(286,295)"/>
<path d="M0 0 C0.99 0 1.98 0 3 0 C3 5.94 3 11.88 3 18 C2.01 18 1.02 18 0 18 C0 12.06 0 6.12 0 0 Z " fill="#FCFCFC" transform="translate(229,295)"/>
<path d="M0 0 C5.94 0 11.88 0 18 0 C18 0.99 18 1.98 18 3 C12.06 3 6.12 3 0 3 C0 2.01 0 1.02 0 0 Z " fill="#FC2A2A" transform="translate(343,268)"/>
<path d="M0 0 C5.94 0 11.88 0 18 0 C18 0.99 18 1.98 18 3 C12.06 3 6.12 3 0 3 C0 2.01 0 1.02 0 0 Z " fill="#FC2A2A" transform="translate(181,268)"/>
<path d="M0 0 C5.94 0 11.88 0 18 0 C18 0.99 18 1.98 18 3 C12.06 3 6.12 3 0 3 C0 2.01 0 1.02 0 0 Z " fill="#FC2A2A" transform="translate(343,262)"/>
<path d="M0 0 C5.94 0 11.88 0 18 0 C18 0.99 18 1.98 18 3 C12.06 3 6.12 3 0 3 C0 2.01 0 1.02 0 0 Z " fill="#FC2A2A" transform="translate(181,262)"/>
<path d="M0 0 C5.94 0 11.88 0 18 0 C18 0.99 18 1.98 18 3 C12.06 3 6.12 3 0 3 C0 2.01 0 1.02 0 0 Z " fill="#FC2A2A" transform="translate(343,256)"/>
<path d="M0 0 C5.94 0 11.88 0 18 0 C18 0.99 18 1.98 18 3 C12.06 3 6.12 3 0 3 C0 2.01 0 1.02 0 0 Z " fill="#FC2A2A" transform="translate(181,256)"/>
<path d="M0 0 C5.94 0 11.88 0 18 0 C18 0.99 18 1.98 18 3 C12.06 3 6.12 3 0 3 C0 2.01 0 1.02 0 0 Z " fill="#FC2A2A" transform="translate(343,250)"/>
<path d="M0 0 C5.94 0 11.88 0 18 0 C18 0.99 18 1.98 18 3 C12.06 3 6.12 3 0 3 C0 2.01 0 1.02 0 0 Z " fill="#FC2A2A" transform="translate(181,250)"/>
<path d="M0 0 C5.94 0 11.88 0 18 0 C18 0.99 18 1.98 18 3 C12.06 3 6.12 3 0 3 C0 2.01 0 1.02 0 0 Z " fill="#000000" transform="translate(244,226)"/>
<path d="M0 0 C0.99 0 1.98 0 3 0 C3 4.95 3 9.9 3 15 C2.01 15 1.02 15 0 15 C0 10.05 0 5.1 0 0 Z " fill="#000000" transform="translate(361,310)"/>
<path d="M0 0 C0.99 0 1.98 0 3 0 C3 4.95 3 9.9 3 15 C2.01 15 1.02 15 0 15 C0 10.05 0 5.1 0 0 Z " fill="#000000" transform="translate(178,310)"/>
<path d="M0 0 C1.98 0 3.96 0 6 0 C6 2.97 6 5.94 6 9 C5.01 9 4.02 9 3 9 C3 8.01 3 7.02 3 6 C2.01 6 1.02 6 0 6 C0 4.02 0 2.04 0 0 Z " fill="#FC0000" transform="translate(199,304)"/>
<path d="M0 0 C0.99 0 1.98 0 3 0 C3 4.95 3 9.9 3 15 C2.01 15 1.02 15 0 15 C0 10.05 0 5.1 0 0 Z " fill="#000000" transform="translate(310,253)"/>
<path d="M0 0 C0.99 0 1.98 0 3 0 C3 4.95 3 9.9 3 15 C2.01 15 1.02 15 0 15 C0 10.05 0 5.1 0 0 Z " fill="#000000" transform="translate(232,253)"/>
<path d="M0 0 C0.99 0 1.98 0 3 0 C3 1.98 3 3.96 3 6 C-0.96 6 -4.92 6 -9 6 C-9 5.01 -9 4.02 -9 3 C-6.03 3 -3.06 3 0 3 C0 2.01 0 1.02 0 0 Z " fill="#000000" transform="translate(274,175)"/>
<path d="M0 0 C0.99 0 1.98 0 3 0 C3 4.95 3 9.9 3 15 C2.01 15 1.02 15 0 15 C0 10.05 0 5.1 0 0 Z " fill="#FC3232" transform="translate(313,163)"/>
<path d="M0 0 C0.99 0 1.98 0 3 0 C3 4.95 3 9.9 3 15 C2.01 15 1.02 15 0 15 C0 10.05 0 5.1 0 0 Z " fill="#FC3232" transform="translate(226,163)"/>
<path d="M0 0 C0.99 0 1.98 0 3 0 C3 4.95 3 9.9 3 15 C2.01 15 1.02 15 0 15 C0 10.05 0 5.1 0 0 Z " fill="#000000" transform="translate(280,118)"/>
<path d="M0 0 C0.99 0 1.98 0 3 0 C3 4.95 3 9.9 3 15 C2.01 15 1.02 15 0 15 C0 10.05 0 5.1 0 0 Z " fill="#000000" transform="translate(256,118)"/>
<path d="M0 0 C1.98 0 3.96 0 6 0 C6 1.98 6 3.96 6 6 C4.02 6 2.04 6 0 6 C0 4.02 0 2.04 0 0 Z " fill="#FC0000" transform="translate(280,364)"/>
<path d="M0 0 C1.98 0 3.96 0 6 0 C6 1.98 6 3.96 6 6 C4.02 6 2.04 6 0 6 C0 4.02 0 2.04 0 0 Z " fill="#FC0000" transform="translate(223,364)"/>
<path d="M0 0 C3.96 0 7.92 0 12 0 C12 0.99 12 1.98 12 3 C8.04 3 4.08 3 0 3 C0 2.01 0 1.02 0 0 Z " fill="#000000" transform="translate(346,328)"/>
<path d="M0 0 C3.96 0 7.92 0 12 0 C12 0.99 12 1.98 12 3 C8.04 3 4.08 3 0 3 C0 2.01 0 1.02 0 0 Z " fill="#000000" transform="translate(184,328)"/>
<path d="M0 0 C0.99 0 1.98 0 3 0 C3 3.96 3 7.92 3 12 C2.01 12 1.02 12 0 12 C0 8.04 0 4.08 0 0 Z " fill="#FCFCFC" transform="translate(181,310)"/>
<path d="M0 0 C1.98 0 3.96 0 6 0 C6 1.98 6 3.96 6 6 C4.02 6 2.04 6 0 6 C0 4.02 0 2.04 0 0 Z " fill="#FC00FC" transform="translate(298,238)"/>
<path d="M0 0 C1.98 0 3.96 0 6 0 C6 1.98 6 3.96 6 6 C4.02 6 2.04 6 0 6 C0 4.02 0 2.04 0 0 Z " fill="#00FC00" transform="translate(283,238)"/>
<path d="M0 0 C1.98 0 3.96 0 6 0 C6 0.99 6 1.98 6 3 C5.01 3 4.02 3 3 3 C3 3.99 3 4.98 3 6 C2.01 6 1.02 6 0 6 C0 4.02 0 2.04 0 0 Z " fill="#FCFCFC" transform="translate(208,322)"/>
<path d="M0 0 C2.97 0 5.94 0 9 0 C9 0.99 9 1.98 9 3 C6.03 3 3.06 3 0 3 C0 2.01 0 1.02 0 0 Z " fill="#FC5454" transform="translate(190,316)"/>
<path d="M0 0 C1.98 0 3.96 0 6 0 C6 1.98 6 3.96 6 6 C5.01 6 4.02 6 3 6 C3 5.01 3 4.02 3 3 C2.01 3 1.02 3 0 3 C0 2.01 0 1.02 0 0 Z " fill="#000000" transform="translate(262,229)"/>
<path d="M0 0 C1.98 0 3.96 0 6 0 C6 0.99 6 1.98 6 3 C5.01 3 4.02 3 3 3 C3 3.99 3 4.98 3 6 C2.01 6 1.02 6 0 6 C0 4.02 0 2.04 0 0 Z " fill="#000000" transform="translate(238,229)"/>
<path d="M0 0 C0.99 0 1.98 0 3 0 C3 2.97 3 5.94 3 9 C2.01 9 1.02 9 0 9 C0 6.03 0 3.06 0 0 Z " fill="#FC5454" transform="translate(340,217)"/>
<path d="M0 0 C0.99 0 1.98 0 3 0 C3 2.97 3 5.94 3 9 C2.01 9 1.02 9 0 9 C0 6.03 0 3.06 0 0 Z " fill="#FC5454" transform="translate(202,217)"/>
<path d="M0 0 C2.97 0 5.94 0 9 0 C9 0.99 9 1.98 9 3 C6.03 3 3.06 3 0 3 C0 2.01 0 1.02 0 0 Z " fill="#000000" transform="translate(346,208)"/>
<path d="M0 0 C2.97 0 5.94 0 9 0 C9 0.99 9 1.98 9 3 C6.03 3 3.06 3 0 3 C0 2.01 0 1.02 0 0 Z " fill="#000000" transform="translate(187,208)"/>
<path d="M0 0 C2.97 0 5.94 0 9 0 C9 0.99 9 1.98 9 3 C6.03 3 3.06 3 0 3 C0 2.01 0 1.02 0 0 Z " fill="#FCFCFC" transform="translate(280,169)"/>
<path d="M0 0 C2.97 0 5.94 0 9 0 C9 0.99 9 1.98 9 3 C6.03 3 3.06 3 0 3 C0 2.01 0 1.02 0 0 Z " fill="#FCFCFC" transform="translate(250,169)"/>
<path d="M0 0 C0.99 0 1.98 0 3 0 C3 2.97 3 5.94 3 9 C2.01 9 1.02 9 0 9 C0 6.03 0 3.06 0 0 Z " fill="#FCFCFC" transform="translate(292,157)"/>
<path d="M0 0 C1.98 0 3.96 0 6 0 C6 0.99 6 1.98 6 3 C5.01 3 4.02 3 3 3 C3 3.99 3 4.98 3 6 C2.01 6 1.02 6 0 6 C0 4.02 0 2.04 0 0 Z " fill="#FCFCFC" transform="translate(280,157)"/>
<path d="M0 0 C0.99 0 1.98 0 3 0 C3 2.97 3 5.94 3 9 C2.01 9 1.02 9 0 9 C0 6.03 0 3.06 0 0 Z " fill="#FCFCFC" transform="translate(274,157)"/>
<path d="M0 0 C0.99 0 1.98 0 3 0 C3 2.97 3 5.94 3 9 C2.01 9 1.02 9 0 9 C0 6.03 0 3.06 0 0 Z " fill="#FCFCFC" transform="translate(262,157)"/>
<path d="M0 0 C1.98 0 3.96 0 6 0 C6 0.99 6 1.98 6 3 C5.01 3 4.02 3 3 3 C3 3.99 3 4.98 3 6 C2.01 6 1.02 6 0 6 C0 4.02 0 2.04 0 0 Z " fill="#FCFCFC" transform="translate(250,157)"/>
<path d="M0 0 C0.99 0 1.98 0 3 0 C3 2.97 3 5.94 3 9 C2.01 9 1.02 9 0 9 C0 6.03 0 3.06 0 0 Z " fill="#FCFCFC" transform="translate(244,157)"/>
<path d="M0 0 C2.97 0 5.94 0 9 0 C9 0.99 9 1.98 9 3 C6.03 3 3.06 3 0 3 C0 2.01 0 1.02 0 0 Z " fill="#FCFCFC" transform="translate(280,151)"/>
<path d="M0 0 C2.97 0 5.94 0 9 0 C9 0.99 9 1.98 9 3 C6.03 3 3.06 3 0 3 C0 2.01 0 1.02 0 0 Z " fill="#FCFCFC" transform="translate(250,151)"/>
<path d="M0 0 C2.97 0 5.94 0 9 0 C9 0.99 9 1.98 9 3 C6.03 3 3.06 3 0 3 C0 2.01 0 1.02 0 0 Z " fill="#0000FC" transform="translate(265,124)"/>
<path d="M0 0 C1.98 0 3.96 0 6 0 C6 0.99 6 1.98 6 3 C5.01 3 4.02 3 3 3 C3 3.99 3 4.98 3 6 C2.01 6 1.02 6 0 6 C0 4.02 0 2.04 0 0 Z " fill="#FCFCFC" transform="translate(259,118)"/>
<path d="M0 0 C0.99 0 1.98 0 3 0 C3 1.98 3 3.96 3 6 C2.01 6 1.02 6 0 6 C0 4.02 0 2.04 0 0 Z " fill="#FCFCFC" transform="translate(286,364)"/>
<path d="M0 0 C0.99 0 1.98 0 3 0 C3 1.98 3 3.96 3 6 C2.01 6 1.02 6 0 6 C0 4.02 0 2.04 0 0 Z " fill="#FCFCFC" transform="translate(280,364)"/>
<path d="M0 0 C0.99 0 1.98 0 3 0 C3 1.98 3 3.96 3 6 C2.01 6 1.02 6 0 6 C0 4.02 0 2.04 0 0 Z " fill="#FCFCFC" transform="translate(229,364)"/>
<path d="M0 0 C0.99 0 1.98 0 3 0 C3 1.98 3 3.96 3 6 C2.01 6 1.02 6 0 6 C0 4.02 0 2.04 0 0 Z " fill="#FCFCFC" transform="translate(223,364)"/>
<path d="M0 0 C1.98 0 3.96 0 6 0 C6 0.99 6 1.98 6 3 C4.02 3 2.04 3 0 3 C0 2.01 0 1.02 0 0 Z " fill="#000000" transform="translate(202,331)"/>
<path d="M0 0 C1.98 0 3.96 0 6 0 C6 0.99 6 1.98 6 3 C4.02 3 2.04 3 0 3 C0 2.01 0 1.02 0 0 Z " fill="#FCFCFC" transform="translate(202,328)"/>
<path d="M0 0 C0.99 0 1.98 0 3 0 C3 1.98 3 3.96 3 6 C2.01 6 1.02 6 0 6 C0 4.02 0 2.04 0 0 Z " fill="#000000" transform="translate(217,316)"/>
<path d="M0 0 C0.99 0 1.98 0 3 0 C3 1.98 3 3.96 3 6 C2.01 6 1.02 6 0 6 C0 4.02 0 2.04 0 0 Z " fill="#FCFCFC" transform="translate(214,316)"/>
<path d="M0 0 C1.98 0 3.96 0 6 0 C6 0.99 6 1.98 6 3 C4.02 3 2.04 3 0 3 C0 2.01 0 1.02 0 0 Z " fill="#FCFCFC" transform="translate(199,304)"/>
<path d="M0 0 C1.98 0 3.96 0 6 0 C6 0.99 6 1.98 6 3 C4.02 3 2.04 3 0 3 C0 2.01 0 1.02 0 0 Z " fill="#000000" transform="translate(199,301)"/>
<path d="M0 0 C1.98 0 3.96 0 6 0 C6 0.99 6 1.98 6 3 C4.02 3 2.04 3 0 3 C0 2.01 0 1.02 0 0 Z " fill="#000000" transform="translate(298,244)"/>
<path d="M0 0 C1.98 0 3.96 0 6 0 C6 0.99 6 1.98 6 3 C4.02 3 2.04 3 0 3 C0 2.01 0 1.02 0 0 Z " fill="#000000" transform="translate(283,244)"/>
<path d="M0 0 C0.99 0 1.98 0 3 0 C3 1.98 3 3.96 3 6 C2.01 6 1.02 6 0 6 C0 4.02 0 2.04 0 0 Z " fill="#000000" transform="translate(304,238)"/>
<path d="M0 0 C0.99 0 1.98 0 3 0 C3 1.98 3 3.96 3 6 C2.01 6 1.02 6 0 6 C0 4.02 0 2.04 0 0 Z " fill="#000000" transform="translate(295,238)"/>
<path d="M0 0 C0.99 0 1.98 0 3 0 C3 1.98 3 3.96 3 6 C2.01 6 1.02 6 0 6 C0 4.02 0 2.04 0 0 Z " fill="#000000" transform="translate(289,238)"/>
<path d="M0 0 C0.99 0 1.98 0 3 0 C3 1.98 3 3.96 3 6 C2.01 6 1.02 6 0 6 C0 4.02 0 2.04 0 0 Z " fill="#000000" transform="translate(280,238)"/>
<path d="M0 0 C1.98 0 3.96 0 6 0 C6 0.99 6 1.98 6 3 C4.02 3 2.04 3 0 3 C0 2.01 0 1.02 0 0 Z " fill="#000000" transform="translate(298,235)"/>
<path d="M0 0 C1.98 0 3.96 0 6 0 C6 0.99 6 1.98 6 3 C4.02 3 2.04 3 0 3 C0 2.01 0 1.02 0 0 Z " fill="#000000" transform="translate(283,235)"/>
<path d="M0 0 C1.98 0 3.96 0 6 0 C6 0.99 6 1.98 6 3 C4.02 3 2.04 3 0 3 C0 2.01 0 1.02 0 0 Z " fill="#FCFCFC" transform="translate(187,211)"/>
</svg>
