<svg xmlns="http://www.w3.org/2000/svg" viewBox="0 0 200 260">
<rect x="1" y="1" width="198" height="258" rx="14" fill="none"/>
<circle cx="66.0" cy="96.0" r="15" fill="#1d4e8f" /><circle cx="66.0" cy="96.0" r="6.3" fill="#fbf6e8" opacity="0.9"/><circle cx="66.0" cy="96.0" r="2.52" fill="#1d4e8f"/><circle cx="100.0" cy="72.2" r="15" fill="#b5342a" /><circle cx="100.0" cy="72.2" r="6.3" fill="#fbf6e8" opacity="0.9"/><circle cx="100.0" cy="72.2" r="2.52" fill="#b5342a"/><circle cx="134.0" cy="96.0" r="15" fill="#1f7a4d" /><circle cx="134.0" cy="96.0" r="6.3" fill="#fbf6e8" opacity="0.9"/><circle cx="134.0" cy="96.0" r="2.52" fill="#1f7a4d"/><circle cx="66.0" cy="133.4" r="15" fill="#1d4e8f" /><circle cx="66.0" cy="133.4" r="6.3" fill="#fbf6e8" opacity="0.9"/><circle cx="66.0" cy="133.4" r="2.52" fill="#1d4e8f"/><circle cx="134.0" cy="133.4" r="15" fill="#b5342a" /><circle cx="134.0" cy="133.4" r="6.3" fill="#fbf6e8" opacity="0.9"/><circle cx="134.0" cy="133.4" r="2.52" fill="#b5342a"/><circle cx="66.0" cy="174.2" r="15" fill="#1f7a4d" /><circle cx="66.0" cy="174.2" r="6.3" fill="#fbf6e8" opacity="0.9"/><circle cx="66.0" cy="174.2" r="2.52" fill="#1f7a4d"/><circle cx="134.0" cy="174.2" r="15" fill="#1d4e8f" /><circle cx="134.0" cy="174.2" r="6.3" fill="#fbf6e8" opacity="0.9"/><circle cx="134.0" cy="174.2" r="2.52" fill="#1d4e8f"/></svg>
